<svg id="Icons" height="512" viewBox="0 0 60 60" width="512" xmlns="http://www.w3.org/2000/svg"><path d="m46.31 11.23c1.17-2.56 3.58-4.25 4.97-5.24l2.52 3.1c-1.12.79-3.41 2.6-4.19 4.48z" fill="#5fc77d"/><path d="m13.69 11.23c-1.17-2.56-3.58-4.25-4.97-5.24l-2.52 3.1c1.12.79 3.41 2.6 4.19 4.48z" fill="#5fc77d"/><path d="m57 29c0 12.979-12.088 29-27 29s-27-16.021-27-29 12.088-22 27-22 27 9.021 27 22z" fill="#6de08e"/><path d="m7.244 8.244c-1.825 1.835-4.315 2.3-5.55 1.067s-.768-3.725 1.057-5.56 4.315-2.3 5.56-1.057.768 3.725-1.067 5.55z" fill="#6de08e"/><path d="m52.756 8.244c1.825 1.835 4.315 2.3 5.55 1.067s.768-3.725-1.057-5.56-4.315-2.3-5.56-1.057-.768 3.725 1.067 5.55z" fill="#6de08e"/><path d="m29 43.3v4.7a1 1 0 0 1 -1 1 3 3 0 0 1 -3-3v-.86z" fill="#fff"/><path d="m22.8 49.229a.987.987 0 0 1 -.371-.072 1 1 0 0 1 -.558-1.3 9 9 0 0 1 11.7-5.014 1 1 0 1 1 -.742 1.857 7 7 0 0 0 -9.1 3.9 1 1 0 0 1 -.929.629z" fill="#48935a"/><path d="m13.149 15.366a1 1 0 0 1 -.587-1.81 27.637 27.637 0 0 1 11.261-4.732 1 1 0 1 1 .353 1.969 25.621 25.621 0 0 0 -10.442 4.383.989.989 0 0 1 -.585.19z" fill="#86fdaa"/><path d="m9.761 18.333a1 1 0 0 1 -.728-1.686l.251-.262a1 1 0 0 1 1.431 1.4l-.226.236a1 1 0 0 1 -.728.312z" fill="#86fdaa"/><path d="m57 29c0 12.98-12.09 29-27 29-9.51 0-17.88-6.52-22.68-14.62 4.94 6.65 12.37 11.62 20.68 11.62 14.91 0 27-16.02 27-29a19.321 19.321 0 0 0 -2.36-9.36 19.428 19.428 0 0 1 4.36 12.36z" fill="#5fc77d"/><path d="m7.24 8.24c-1.82 1.84-4.31 2.31-5.55 1.07a2.513 2.513 0 0 1 -.26-.31 5.422 5.422 0 0 0 3.81-1.76c1.7-1.68 2.23-3.93 1.33-5.24a2.5 2.5 0 0 1 1.74.69c1.24 1.24.77 3.73-1.07 5.55z" fill="#5fc77d"/><path d="m58.31 9.31c-1.08 1.08-3.12.86-4.83-.44a2.889 2.889 0 0 0 2.83-.56c1.24-1.24.76-3.72-1.06-5.56a5.065 5.065 0 0 0 -.72-.61 6.064 6.064 0 0 1 2.72 1.61c1.82 1.84 2.3 4.32 1.06 5.56z" fill="#5fc77d"/><path d="m58.992 22.823a2.012 2.012 0 0 1 -1.992 2.177h-5a1 1 0 0 0 -1 1v6a5 5 0 0 1 -5 5h-8a5 5 0 0 1 -5-5v-3a3 3 0 0 0 -3-3 3 3 0 0 0 -3 3v3a5 5 0 0 1 -5 5h-8a5 5 0 0 1 -5-5v-6a1 1 0 0 0 -1-1h-5a2.012 2.012 0 0 1 -1.992-2.177 2.075 2.075 0 0 1 2.104-1.823h53.776a2.075 2.075 0 0 1 2.104 1.823z" fill="#383838"/><g fill="#494949"><path d="m13 30a1 1 0 0 1 -.556-1.832l6-4a1 1 0 1 1 1.11 1.664l-6 4a1 1 0 0 1 -.554.168z"/><path d="m17 34a1 1 0 0 1 -.556-1.832l6-4a1 1 0 1 1 1.11 1.664l-6 4a1 1 0 0 1 -.554.168z"/><path d="m37 30a1 1 0 0 1 -.556-1.832l6-4a1 1 0 1 1 1.11 1.664l-6 4a1 1 0 0 1 -.554.168z"/><path d="m41 34a1 1 0 0 1 -.556-1.832l6-4a1 1 0 1 1 1.11 1.664l-6 4a1 1 0 0 1 -.554.168z"/></g></svg>